<svg width="99" height="100" viewBox="0 0 99 100" fill="none" xmlns="http://www.w3.org/2000/svg">
<path d="M84.5729 14.7272C80.0119 10.1201 74.5792 6.46724 68.5918 3.98171C62.6043 1.49618 56.1818 0.227712 49.699 0.250296C22.5362 0.250296 0.397991 22.3885 0.397991 49.5513C0.397991 58.2573 2.68643 66.7146 6.96482 74.1769L0 99.7478L26.1181 92.8825C33.3317 96.8126 41.4407 98.9021 49.699 98.9021C76.8618 98.9021 99 76.7639 99 49.6011C99 36.4176 93.8759 24.0302 84.5729 14.7272ZM49.699 90.5443C42.3362 90.5443 35.1226 88.5543 28.8045 84.8232L27.3121 83.9277L11.7905 88.0071L15.9196 72.8835L14.9246 71.3413C10.834 64.8091 8.66195 57.2586 8.65628 49.5513C8.65628 26.9654 27.0633 8.55834 49.6492 8.55834C60.594 8.55834 70.892 12.8367 78.603 20.5975C82.4211 24.3982 85.4469 28.9188 87.505 33.8975C89.5631 38.8762 90.6125 44.2138 90.5925 49.6011C90.692 72.187 72.2849 90.5443 49.699 90.5443ZM72.1854 59.899C70.9417 59.3021 64.8724 56.3171 63.7779 55.8694C62.6337 55.4714 61.8377 55.2724 60.992 56.4664C60.1462 57.7101 57.808 60.496 57.1116 61.292C56.4151 62.1377 55.6688 62.2372 54.4251 61.5905C53.1814 60.9935 49.2015 59.6503 44.5251 55.4714C40.8437 52.188 38.406 48.1583 37.6598 46.9146C36.9633 45.6709 37.5603 45.0242 38.207 44.3774C38.7543 43.8302 39.4508 42.9347 40.0477 42.2382C40.6447 41.5418 40.8935 40.9945 41.2915 40.1985C41.6894 39.3528 41.4904 38.6563 41.192 38.0593C40.8935 37.4624 38.406 31.393 37.411 28.9056C36.4161 26.5176 35.3714 26.8161 34.6251 26.7664H32.2372C31.3915 26.7664 30.098 27.0649 28.9538 28.3086C27.8593 29.5523 24.6754 32.5372 24.6754 38.6066C24.6754 44.6759 29.103 50.5463 29.7 51.3423C30.297 52.188 38.406 64.6252 50.7437 69.9483C53.6789 71.2418 55.9673 71.988 57.7583 72.5352C60.6935 73.4805 63.3799 73.3312 65.5191 73.0327C67.907 72.6845 72.8322 70.0478 73.8271 67.1624C74.8718 64.2769 74.8719 61.8392 74.5236 61.292C74.1754 60.7448 73.4291 60.496 72.1854 59.899Z" fill="#0B0E61"/>
</svg>
