<svg width="100" height="100" viewBox="0 0 100 100" fill="none" xmlns="http://www.w3.org/2000/svg">
<path d="M70.9565 0L75.5103 1.23038C81.0793 2.73737 86.1559 5.6781 90.2338 9.75928C94.3117 13.8405 97.2483 18.9194 98.7508 24.4897L99.9764 29.0388L90.8782 31.4948L89.6479 26.9457C88.5742 22.9669 86.4762 19.3391 83.5629 16.4242C80.6497 13.5093 77.0231 11.4092 73.0449 10.3333L68.4958 9.09818L70.9565 0ZM0.000111539 1.0041H40.447L47.4568 32.5413L38.6886 41.3095C43.8418 49.3349 50.6639 56.1554 58.6905 61.3067L67.4587 52.5432L98.9959 59.553V99.9999H94.2818C76.1345 100.028 58.3682 94.7948 43.134 84.9337C31.9016 77.6641 22.3359 68.0984 15.0663 56.866C5.2054 41.6317 -0.0278592 23.8654 0.000111539 5.71819V1.0041ZM9.55556 10.4323C10.3486 25.1401 14.979 39.3838 22.986 51.7465C29.5309 61.8578 38.1422 70.4691 48.2535 77.014C60.616 85.0214 74.8599 89.6518 89.5677 90.4444V67.1144L70.4615 62.8718L60.2131 73.1249L57.0877 71.3477C45.221 64.6034 35.3966 54.779 28.6523 42.9123L26.8751 39.7869L37.1283 29.5385L32.8856 10.4323H9.55556ZM66.6478 15.9242L71.2017 17.1546C73.9862 17.9081 76.5245 19.3784 78.5634 21.419C80.6023 23.4596 82.0706 25.9991 82.8219 28.7842L84.0475 33.3333L74.9493 35.7893L73.719 31.2402C73.3966 30.0465 72.7668 28.9583 71.8925 28.0839C71.0182 27.2096 69.9299 26.5799 68.7362 26.2575L64.1871 25.0271L66.6478 15.9242Z" fill="#0B0E61"/>
</svg>
